# xmcd CD database file
#
# Track frame offsets:
#	150
#	33092
#	64660
#	97666
#	127449
#	157013
#	190807
#	221919
#
# Disc length: 3416 seconds
#
# Revision: 0
# Processed by: cddbd v1.5.2PL0 Copyright (c) Steve Scherf et al.
# Submitted via: CDex 1.51
#
DISCID=6f0d5608
DTITLE=Dan Gibson - Solitudes - Woodland Strings 
DYEAR=2001
DGENRE=New Age
TTITLE0=Clear Sky
TTITLE1=Celebration Of New Life
TTITLE2=Where Time Stands Still
TTITLE3=Come Rest A While
TTITLE4=Fresh Aire
TTITLE5=Stories Of Springtime
TTITLE6=Dancing In The Rain
TTITLE7=Sun Worship
EXTD=YEAR: 2001
EXTT0=
EXTT1=
EXTT2=
EXTT3=
EXTT4=
EXTT5=
EXTT6=
EXTT7=
PLAYORDER=
